<svg width="32" height="32" viewBox="0 0 32 32" fill="none" xmlns="http://www.w3.org/2000/svg">
<rect width="32" height="32" rx="7" fill="#FF5F40"/>
<path d="M20.7564 19.4955L20.7203 19.4593C22.4407 18.6403 23.8442 17.6042 24.5988 15.8255C24.7996 15.3525 24.9017 14.8262 25.0155 14.2577C25.0516 13.8802 25.0881 13.5023 25.1242 13.1249V12.7897C25.1211 12.6114 25.118 12.4332 25.1153 12.2549C25.1064 12.1008 25.0971 11.947 25.0881 11.7928C25.0213 11.413 24.9794 11.0328 24.8796 10.6965C24.3456 8.89254 23.4842 7.56552 22.1246 6.60045C21.1634 5.91811 20.0787 5.47616 18.7171 5.17751C17.5039 4.91149 15.8965 5.02334 14.4669 5.02334H7V27.0715H12.2106V20.2295H14.5306C16.4305 22.5037 18.3307 24.7791 20.2305 27.0533C20.2973 27.1108 20.5746 27.0715 20.6838 27.0715H27V27.0626C24.9188 24.5406 22.8372 22.0178 20.7564 19.4959V19.4955ZM24.3813 25.8389H20.8473C18.9443 23.5585 17.041 21.2772 15.138 18.9968H10.9783V25.8389H8.22332V6.25559H16.6149C16.9532 6.26453 17.2915 6.27385 17.6297 6.28278C17.935 6.322 18.2398 6.36123 18.5451 6.40045C19.3331 6.56939 20.057 6.7892 20.6655 7.14338C22.1626 8.01524 23.1817 9.16555 23.6924 11.0312C23.8733 11.6922 23.9949 12.6685 23.8644 13.4961C23.8007 13.8996 23.7759 14.295 23.683 14.6651C23.5378 15.2433 23.2966 15.7672 22.9945 16.1968C22.3153 17.1626 21.323 17.8562 20.1762 18.3537C19.6837 18.5378 19.1913 18.7222 18.6989 18.9063C18.6899 18.9125 18.6806 18.9184 18.6717 18.9246C20.5595 21.2108 22.4477 23.4983 24.3355 25.7845C24.3506 25.7997 24.3658 25.8148 24.3809 25.83V25.8389H24.3813Z" fill="white" stroke="white" stroke-width="0.0388357" stroke-miterlimit="10"/>
<path d="M19.116 14.4659C18.9455 14.6018 18.7443 14.7455 18.5268 14.8282C18.0713 15.0018 17.0969 14.9882 16.4786 14.9824V16.2151C18.6476 16.2182 19.7486 15.9615 20.5929 14.6112C21.3968 13.3249 21.2026 11.6449 20.4026 10.5152C20.2733 10.3326 20.1401 10.1283 19.9676 9.9897C19.5051 9.61727 19.0457 9.29066 18.3727 9.11978C17.639 8.93337 16.615 9.01104 15.7264 9.01104H10.9686V13.3971H12.2102V10.2437H16.0437C17.4359 10.2437 18.2328 10.1812 19.0251 10.8056C20.05 11.6134 20.1937 13.6061 19.1156 14.4667L19.116 14.4659Z" fill="white" stroke="white" stroke-width="0.0388357" stroke-miterlimit="10"/>
</svg>
