<svg width="516" height="570" viewBox="0 0 516 570" fill="none" xmlns="http://www.w3.org/2000/svg">
<g clip-path="url(#clip0_19_6)">
<path d="M354.72 373.76L353.79 372.83C398.09 351.74 434.23 325.06 453.66 279.26C458.83 267.08 461.46 253.53 464.39 238.89C465.32 229.17 466.26 219.44 467.19 209.72V201.09C467.11 196.5 467.03 191.91 466.96 187.32C466.73 183.35 466.49 179.39 466.26 175.42C464.54 165.64 463.46 155.85 460.89 147.19C447.14 100.74 424.96 66.57 389.95 41.72C365.2 24.15 337.27 12.77 302.21 5.08C270.97 -1.77 229.58 1.11 192.77 1.11H0.5V568.84H134.67V392.66H194.41C243.33 451.22 292.26 509.81 341.18 568.37C342.9 569.85 350.04 568.84 352.85 568.84H515.49V568.61C461.9 503.67 408.3 438.71 354.72 373.77V373.76ZM448.06 537.1H357.06C308.06 478.38 259.05 419.64 210.05 360.92H102.94V537.1H32V32.84H248.08C256.79 33.07 265.5 33.31 274.21 33.54C282.07 34.55 289.92 35.56 297.78 36.57C318.07 40.92 336.71 46.58 352.38 55.7C390.93 78.15 417.17 107.77 430.32 155.81C434.98 172.83 438.11 197.97 434.75 219.28C433.11 229.67 432.47 239.85 430.08 249.38C426.34 264.27 420.13 277.76 412.35 288.82C394.86 313.69 369.31 331.55 339.78 344.36C327.1 349.1 314.42 353.85 301.74 358.59C301.51 358.75 301.27 358.9 301.04 359.06C349.65 417.93 398.27 476.83 446.88 535.7C447.27 536.09 447.66 536.48 448.05 536.87V537.1H448.06Z" fill="white" stroke="white" stroke-miterlimit="10"/>
<path d="M312.48 244.25C308.09 247.75 302.91 251.45 297.31 253.58C285.58 258.05 260.49 257.7 244.57 257.55V289.29C300.42 289.37 328.77 282.76 350.51 247.99C371.21 214.87 366.21 171.61 345.61 142.52C342.28 137.82 338.85 132.56 334.41 128.99C322.5 119.4 310.67 110.99 293.34 106.59C274.45 101.79 248.08 103.79 225.2 103.79H102.69V216.73H134.66V135.53H233.37C269.22 135.53 289.74 133.92 310.14 150C336.53 170.8 340.23 222.11 312.47 244.27L312.48 244.25Z" fill="white" stroke="white" stroke-miterlimit="10"/>
</g>
<defs>
<clipPath id="clip0_19_6">
<rect width="515.99" height="569.67" fill="white"/>
</clipPath>
</defs>
</svg>
